<svg width="32" height="25" viewBox="0 0 32 25" fill="none" xmlns="http://www.w3.org/2000/svg">
<path d="M0 16C0 15.6735 0.130612 15.3731 0.391837 15.0988C0.679184 14.8506 0.992653 14.72 1.30612 14.72H4.34939C4.70204 14.72 4.98939 14.8506 5.22449 15.0988C5.45959 15.3469 5.57714 15.6604 5.57714 16C5.57714 16.3788 5.45959 16.6922 5.22449 16.9404C4.98939 17.1886 4.68898 17.3192 4.34939 17.3192H1.30612C0.953469 17.3192 0.653061 17.1886 0.391837 16.9273C0.130612 16.6531 0 16.3396 0 16ZM4.34939 5.57714C4.34939 5.22449 4.46694 4.92408 4.68898 4.68898C4.98939 4.42775 5.2898 4.29714 5.61633 4.29714C5.95592 4.29714 6.25633 4.42776 6.50449 4.67592L8.64653 6.83102C8.89469 7.11837 9.01224 7.41878 9.01224 7.73224C9.01224 8.09796 8.89469 8.41143 8.65959 8.64653C8.42449 8.88163 8.13714 9.01225 7.79755 9.01225C7.48408 9.01225 7.17061 8.88163 6.88327 8.63347L4.68898 6.53061C4.46694 6.25633 4.34939 5.9298 4.34939 5.57714ZM6.96163 23.2098C6.96163 22.8441 7.09224 22.5437 7.34041 22.3216C7.57551 22.0996 7.86286 21.982 8.22857 21.982H11.6637L15.7257 18.1682C15.8563 18.0637 16 18.0637 16.1698 18.1682L20.2971 21.982H23.9151C24.2678 21.982 24.5682 22.0996 24.8163 22.3478C25.0645 22.5829 25.1951 22.8833 25.1951 23.2229C25.1951 23.5755 25.0645 23.8759 24.8163 24.1241C24.5682 24.3722 24.2678 24.5029 23.9151 24.5029H19.5004C19.3698 24.5029 19.2392 24.4767 19.1216 24.4114L15.9739 21.4465L12.8522 24.4114C12.7478 24.4767 12.6302 24.5029 12.4865 24.5029H8.22857C7.87592 24.5029 7.57551 24.3722 7.32735 24.1241C7.07918 23.8629 6.96163 23.5624 6.96163 23.2098ZM8.16327 16C8.16327 17.2669 8.43755 18.4163 8.97306 19.4482C8.99918 19.6049 9.11673 19.6833 9.29959 19.6833H11.7551C11.8465 19.6833 11.9118 19.6441 11.951 19.5788C11.9902 19.5004 11.9771 19.422 11.9249 19.3306C11.089 18.3249 10.671 17.2147 10.671 16C10.671 14.5371 11.1935 13.2833 12.2384 12.2514C13.2833 11.2196 14.5371 10.7102 16.0131 10.7102C17.4759 10.7102 18.7167 11.2196 19.7486 12.2514C20.7804 13.2833 21.3029 14.5241 21.3029 16C21.3029 17.2278 20.8849 18.338 20.062 19.3306C20.0098 19.422 19.9967 19.5004 20.0229 19.5788C20.049 19.6571 20.1143 19.6833 20.2188 19.6833H22.7004C22.8702 19.6833 22.9747 19.6049 23.0008 19.4482C23.5755 18.4424 23.8367 17.2931 23.8367 16C23.8367 14.942 23.6278 13.9233 23.2098 12.9698C22.7918 12.0033 22.2302 11.1804 21.538 10.4751C20.8457 9.78286 20.0098 9.22123 19.0433 8.80327C18.0767 8.38531 17.071 8.18939 16.0131 8.18939C14.9551 8.18939 13.9363 8.39837 12.9698 8.80327C12.0033 9.22123 11.1673 9.7698 10.462 10.4751C9.75673 11.1673 9.1951 12.0033 8.77714 12.9698C8.37225 13.9233 8.16327 14.929 8.16327 16ZM14.7331 4.29714V1.29306C14.7331 0.914286 14.8506 0.613878 15.0988 0.365715C15.3469 0.117551 15.6604 0 16.0261 0C16.3918 0 16.6922 0.117551 16.9404 0.365715C17.1886 0.613878 17.3061 0.940408 17.3061 1.30612V4.3102C17.3061 4.68898 17.1886 4.98939 16.9404 5.23755C16.7053 5.47265 16.3918 5.60327 16.0261 5.60327C15.6473 5.60327 15.3469 5.48571 15.0988 5.23755C14.8506 4.98939 14.7331 4.67592 14.7331 4.29714ZM23.0269 7.74531C23.0269 7.41878 23.1445 7.11837 23.3796 6.84408L25.4955 4.68898C25.7437 4.44082 26.0571 4.3102 26.4098 4.3102C26.7624 4.3102 27.0759 4.44082 27.311 4.68898C27.5592 4.93714 27.6767 5.23755 27.6767 5.5902C27.6767 5.96898 27.5592 6.28245 27.3371 6.54367L25.1429 8.64653C24.8686 8.89469 24.5551 9.02531 24.2286 9.02531C23.8759 9.02531 23.5886 8.90776 23.3665 8.65959C23.1445 8.41143 23.0269 8.11102 23.0269 7.74531ZM26.4359 16C26.4359 15.6473 26.5535 15.3469 26.7886 15.0988C27.0237 14.8506 27.311 14.72 27.6506 14.72H30.72C31.0727 14.72 31.3731 14.8506 31.6212 15.0988C31.8694 15.3469 32 15.6604 32 16C32 16.3657 31.8694 16.6661 31.6212 16.9273C31.3731 17.1886 31.0727 17.3192 30.72 17.3192H27.6506C27.298 17.3192 27.0106 17.1886 26.7755 16.9404C26.5535 16.6792 26.4359 16.3657 26.4359 16Z" fill="white"/>
</svg>
